ffmpeg version 3.4.8-0ubuntu0.2 Copyright (c) 2000-2020 the FFmpeg developers
  built with gcc 7 (Ubuntu 7.5.0-3ubuntu1~18.04)
  configuration: --prefix=/usr --extra-version=0ubuntu0.2 --toolchain=hardened --libdir=/usr/lib/x86_64-linux-gnu --incdir=/usr/include/x86_64-linux-gnu --enable-gpl --disable-stripping --enable-avresample --enable-avisynth --enable-gnutls --enable-ladspa --enable-libass --enable-libbluray --enable-libbs2b --enable-libcaca --enable-libcdio --enable-libflite --enable-libfontconfig --enable-libfreetype --enable-libfribidi --enable-libgme --enable-libgsm --enable-libmp3lame --enable-libmysofa --enable-libopenjpeg --enable-libopenmpt --enable-libopus --enable-libpulse --enable-librubberband --enable-librsvg --enable-libshine --enable-libsnappy --enable-libsoxr --enable-libspeex --enable-libssh --enable-libtheora --enable-libtwolame --enable-libvorbis --enable-libvpx --enable-libwavpack --enable-libwebp --enable-libx265 --enable-libxml2 --enable-libxvid --enable-libzmq --enable-libzvbi --enable-omx --enable-openal --enable-opengl --enable-sdl2 --enable-libdc1394 --enable-libdrm --enable-libiec61883 --enable-chromaprint --enable-frei0r --enable-libopencv --enable-libx264 --enable-shared
  libavutil      55. 78.100 / 55. 78.100
  libavcodec     57.107.100 / 57.107.100
  libavformat    57. 83.100 / 57. 83.100
  libavdevice    57. 10.100 / 57. 10.100
  libavfilter     6.107.100 /  6.107.100
  libavresample   3.  7.  0 /  3.  7.  0
  libswscale      4.  8.100 /  4.  8.100
  libswresample   2.  9.100 /  2.  9.100
  libpostproc    54.  7.100 / 54.  7.100
[rawvideo @ 0x560abc17fa20] Estimating duration from bitrate, this may be inaccurate
Input #0, rawvideo, from '../../SVC-Encoder-20220109T061506Z-001/SVC-Encoder/Dataset/RollerCoaster/ERP_8x8/tile_yuv/Tile_30_480x240.yuv':
  Duration: 00:00:10.00, start: 0.000000, bitrate: 41472 kb/s
    Stream #0:0: Video: rawvideo (I420 / 0x30323449), yuv420p, 480x240, 41472 kb/s, 30 tbr, 30 tbn, 30 tbc
Stream mapping:
  Stream #0:0 -> #0:0 (rawvideo (native) -> h264 (libx264))
Press [q] to stop, [?] for help
[libx264 @ 0x560abc18cc60] using cpu capabilities: MMX2 SSE2Fast LZCNT SSSE3 SSE4.2 AVX
[libx264 @ 0x560abc18cc60] profile High, level 2.1
Output #0, rawvideo, to 'RollerCoaster_Tile_30_480x240_x264_QP_28.h264':
  Metadata:
    encoder         : Lavf57.83.100
    Stream #0:0: Video: h264 (libx264), yuv420p, 480x240, q=-1--1, 30 fps, 30 tbn, 30 tbc
    Metadata:
      encoder         : Lavc57.107.100 libx264
    Side data:
      cpb: bitrate max/min/avg: 0/0/0 buffer size: 0 vbv_delay: -1
frame=  153 fps=0.0 q=34.0 PSNR=Y:nan U:nan V:nan *:nan size=      91kB time=00:00:03.66 bitrate= 203.4kbits/s speed=7.27x    frame=  300 fps=278 q=34.0 LPSNR=Y:inf U:inf V:inf *:inf size=     209kB time=00:00:09.93 bitrate= 172.6kbits/s speed= 9.2x    
video:209kB audio:0kB subtitle:0kB other streams:0kB global headers:0kB muxing overhead: 0.000000%
[libx264 @ 0x560abc18cc60] frame I:2     Avg QP:26.60  size: 12112  PSNR Mean Y:39.72 U:46.90 V:50.44 Avg:41.19 Global:41.00
[libx264 @ 0x560abc18cc60] frame P:80    Avg QP:27.97  size:  1802  PSNR Mean Y:37.86 U:46.85 V:49.41 Avg:39.41 Global:39.37
[libx264 @ 0x560abc18cc60] frame B:218   Avg QP:33.53  size:   211  PSNR Mean Y:37.91 U:46.98 V:49.50 Avg:39.47 Global:39.44
[libx264 @ 0x560abc18cc60] consecutive B-frames:  1.7%  4.0%  1.0% 93.3%
[libx264 @ 0x560abc18cc60] mb I  I16..4: 10.7% 84.6%  4.8%
[libx264 @ 0x560abc18cc60] mb P  I16..4:  0.5%  0.7%  0.2%  P16..4: 41.5% 18.5%  7.0%  0.0%  0.0%    skip:31.5%
[libx264 @ 0x560abc18cc60] mb B  I16..4:  0.0%  0.0%  0.0%  B16..8: 32.3%  1.0%  0.2%  direct: 0.1%  skip:66.3%  L0:28.7% L1:70.4% BI: 0.9%
[libx264 @ 0x560abc18cc60] 8x8 transform intra:71.7% inter:61.6%
[libx264 @ 0x560abc18cc60] coded y,uvDC,uvAC intra: 75.9% 59.9% 7.2% inter: 7.0% 2.7% 0.0%
[libx264 @ 0x560abc18cc60] i16 v,h,dc,p: 17% 48% 21% 14%
[libx264 @ 0x560abc18cc60] i8 v,h,dc,ddl,ddr,vr,hd,vl,hu:  6% 16% 18% 10%  8%  6%  9%  7% 20%
[libx264 @ 0x560abc18cc60] i4 v,h,dc,ddl,ddr,vr,hd,vl,hu:  8% 14% 33%  8%  7% 10%  5%  4% 10%
[libx264 @ 0x560abc18cc60] i8c dc,h,v,p: 54% 26% 12%  8%
[libx264 @ 0x560abc18cc60] Weighted P-Frames: Y:3.8% UV:0.0%
[libx264 @ 0x560abc18cc60] ref P L0: 63.8% 23.6% 10.3%  2.3%  0.1%
[libx264 @ 0x560abc18cc60] ref B L0: 93.0%  6.2%  0.7%
[libx264 @ 0x560abc18cc60] ref B L1: 94.3%  5.7%
[libx264 @ 0x560abc18cc60] PSNR Mean Y:37.912 U:46.942 V:49.481 Avg:39.465 Global:39.430 kb/s:171.48
